<svg width="535" height="500" viewBox="0 0 535 500" xmlns="http://www.w3.org/2000/svg" xmlns:xlink="http://www.w3.org/1999/xlink"><title>finder</title><defs><linearGradient x1="0%" y1="0%" x2="0%" y2="100%" id="a"><stop stop-color="#00F0FF" offset="0%"/><stop stop-color="#0070E0" offset="100%"/></linearGradient><path id="b" d="M53.254 0C15.976 83.6 0 243.344 0 269.968c0 10.65 5.325 15.974 15.976 15.974h53.255c10.65 0 15.976 5.325 15.976 15.975 0 101.171 0 101.171 15.976 198.083h224.734V0H53.254z"/><linearGradient x1="0%" y1="0%" x2="0%" y2="100%" id="c"><stop stop-color="#F8F8F8" offset="0%"/><stop stop-color="#F8F8F8" offset="60%"/><stop stop-color="#C0E0FF" offset="98%"/><stop stop-color="#B0D0F0" offset="100%"/></linearGradient><filter x="-50%" y="-50%" width="200%" height="200%" filterUnits="objectBoundingBox" id="e"><feOffset dy="1" in="SourceAlpha" result="shadowOffsetOuter1"/><feGaussianBlur stdDeviation="1" in="shadowOffsetOuter1" result="shadowBlurOuter1"/><feColorMatrix values="0 0 0 0 0 0 0 0 0 0 0 0 0 0 0 0 0 0 0.7 0" in="shadowBlurOuter1" result="shadowMatrixOuter1"/><feMerge><feMergeNode in="shadowMatrixOuter1"/><feMergeNode in="SourceGraphic"/></feMerge></filter></defs><g fill="none" fill-rule="evenodd"><rect fill="url(#a)" width="534.675" height="499.468" rx="31.949"/><g transform="translate(214.083)"><mask id="d" fill="#fff"><use xlink:href="#b"/></mask><rect fill="url(#c)" mask="url(#d)" x="-214.083" width="534.675" height="499.468" rx="31.949"/></g><rect fill="#000" x="141.124" y="123.536" width="21.302" height="58.573" rx="10.65"/><rect fill="#000" x="372.249" y="123.536" width="21.302" height="58.573" rx="10.65"/><path d="M114.497 296.592c56.982 79.872 248.698 79.872 305.68 0" stroke="#000" stroke-width="21.299" filter="url(#e)"/></g></svg>