<?xml version="1.0" encoding="UTF-8"?>
<svg width="535px" height="500px" viewBox="0 0 535 500" version="1.1" xmlns="http://www.w3.org/2000/svg" xmlns:xlink="http://www.w3.org/1999/xlink" xmlns:sketch="http://www.bohemiancoding.com/sketch/ns">
    <title>finder</title>
    <description>Created with Sketch (http://www.bohemiancoding.com/sketch)</description>
    <defs>
        <linearGradient x1="0%" y1="0%" x2="0%" y2="100%" id="linearGradient-1">
            <stop stop-color="#00F0FF" offset="0%"></stop>
            <stop stop-color="#0070E0" offset="100%"></stop>
        </linearGradient>
        <rect id="path-2" x="0" y="0" width="534.674556" height="499.467519" rx="31.9488818"></rect>
        <path id="path-4" d="M53.2544379,0 C15.9763314,83.599574 0,243.343983 0,269.968051 C0,280.617678 5.32544379,285.942492 15.9763314,285.942492 L69.2307692,285.942492 C79.8816568,285.942492 85.2071006,291.267306 85.2071006,301.916933 C85.2071006,403.088392 85.2071006,403.088392 101.183432,500 L325.91716,500 L325.91716,0 L53.2544379,0 Z"></path>
        <path id="path-6" d="M53.2544379,0 C15.9763314,83.599574 0,243.343983 0,269.968051 C0,280.617678 5.32544379,285.942492 15.9763314,285.942492 L69.2307692,285.942492 C79.8816568,285.942492 85.2071006,291.267306 85.2071006,301.916933 C85.2071006,403.088392 85.2071006,403.088392 101.183432,500 L325.91716,500 L325.91716,0 L53.2544379,0 Z"></path>
        <linearGradient x1="0%" y1="0%" x2="0%" y2="100%" id="linearGradient-8">
            <stop stop-color="#F8F8F8" offset="0%"></stop>
            <stop stop-color="#F8F8F8" offset="60%"></stop>
            <stop stop-color="#C0E0FF" offset="98%"></stop>
            <stop stop-color="#B0D0F0" offset="100%"></stop>
        </linearGradient>
        <filter x="-50%" y="-50%" width="200%" height="200%" filterUnits="objectBoundingBox" id="filter-9">
            <feOffset dx="0" dy="1" in="SourceAlpha" result="shadowOffsetOuter1"></feOffset>
            <feGaussianBlur stdDeviation="1" in="shadowOffsetOuter1" result="shadowBlurOuter1"></feGaussianBlur>
            <feColorMatrix values="0 0 0 0 0   0 0 0 0 0   0 0 0 0 0  0 0 0 0.7 0" in="shadowBlurOuter1" type="matrix" result="shadowMatrixOuter1"></feColorMatrix>
            <feMerge>
                <feMergeNode in="shadowMatrixOuter1"></feMergeNode>
                <feMergeNode in="SourceGraphic"></feMergeNode>
            </feMerge>
        </filter>
    </defs>
    <g id="Page-1" stroke="none" stroke-width="1" fill="none" fill-rule="evenodd" sketch:type="MSPage">
        <g id="finder" sketch:type="MSLayerGroup">
            <rect id="Rectangle" fill="url(#linearGradient-1)" sketch:type="MSShapeGroup" x="0" y="0" width="534.674556" height="499.467519" rx="31.9488818"></rect>
            <g id="Clipped">
                <mask id="mask-3" sketch:name="Rectangle" fill="white">
                    <use xlink:href="#path-2"></use>
                </mask>
                <g id="Rectangle"></g>
                <g id="Group" mask="url(#mask-3)" transform="translate(214.082840, 0.000000)">
                    <g id="Clipped">
                        <mask id="mask-5" sketch:name="faceoutline" fill="white">
                            <use xlink:href="#path-4"></use>
                        </mask>
                        <g id="faceoutline"></g>
                    </g>
                </g>
            </g>
            <g id="Clipped" transform="translate(214.082840, 0.000000)">
                <mask id="mask-7" sketch:name="faceoutline" fill="white">
                    <use xlink:href="#path-6"></use>
                </mask>
                <g id="faceoutline"></g>
                <rect id="Rectangle" fill="url(#linearGradient-8)" sketch:type="MSShapeGroup" mask="url(#mask-7)" x="-214.08284" y="0" width="534.674556" height="499.467519" rx="31.9488818"></rect>
            </g>
            <rect id="Rectangle" fill="#000000" sketch:type="MSShapeGroup" x="141.12426" y="123.535676" width="21.3017751" height="58.5729499" rx="10.6496273"></rect>
            <rect id="Rectangle" fill="#000000" sketch:type="MSShapeGroup" x="372.248521" y="123.535676" width="21.3017751" height="58.5729499" rx="10.6496273"></rect>
            <path d="M114.497041,296.592119 C171.47929,376.464324 363.195266,376.464324 420.177515,296.592119" id="Shape" stroke="#000000" stroke-width="21.2992545" filter="url(#filter-9)" sketch:type="MSShapeGroup"></path>
        </g>
    </g>
</svg>